# xmcd
#
# Track frame offsets:
#	150
#	19891
#	37664
#	49912
#	67504
#	84721
#	100413
#	117148
#	133684
#	149288
#	166943
#
# Disc length: 2533 seconds
#
# Revision: 2
# Processed by: cddbd v1.5.2PL0 Copyright (c) Steve Scherf et al.
# Submitted via: EZCDAudioConverter 6.0.2.1
#
DISCID=8909e30b
DTITLE=Rodney Crowell - Tarpaper Sky
DYEAR=2014
DGENRE=Country
TTITLE0=The Long Journey Home [For Ben]
TTITLE1=Fever on the Bayou
TTITLE2=Frankie Please
TTITLE3=God I'm Missing You
TTITLE4=Famous Last Words of a Fool in Love
TTITLE5=Somebody's Shadow
TTITLE6=Grandma Loved That Old Man
TTITLE7=Jesus Talk to Mama
TTITLE8=I Wouldn't Be Me Without You
TTITLE9=The Flyboy and The Kid [For Guy]
TTITLE10=Oh What a Beautiful World [For John Denver]
EXTD=
EXTT0=
EXTT1=
EXTT2=
EXTT3=
EXTT4=
EXTT5=
EXTT6=
EXTT7=
EXTT8=
EXTT9=
EXTT10=
PLAYORDER=
